# MagicaVoxel @ Ephtracy

# group
o 

# material
mtllib Target.mtl
usemtl palette

# normals
vn -1 0 0
vn 1 0 0
vn 0 0 1
vn 0 0 -1
vn 0 -1 0
vn 0 1 0

# texcoords
vt 0.681641 0.5
vt 0.841797 0.5
vt 0.958984 0.5
vt 0.994141 0.5

# verts
v -0.4 0.2 0.5
v -0.4 0.2 0.4
v -0.4 0.6 0.5
v -0.4 0.6 0.4
v -0.3 0.1 0.5
v -0.3 0.1 0.4
v -0.3 0.2 0.5
v -0.3 0.2 0.4
v -0.3 0.6 0.5
v -0.3 0.6 0.4
v -0.3 0.7 0.5
v -0.3 0.7 0.4
v -0.2 0 0.5
v -0.2 0 0.4
v -0.2 0.1 0.5
v -0.2 0.1 0.4
v -0.2 0.7 0.5
v -0.2 0.7 0.4
v -0.2 0.8 0.5
v -0.2 0.8 0.4
v 0.2 0 0.5
v 0.2 0 0.4
v 0.2 0.1 0.5
v 0.2 0.1 0.4
v 0.2 0.7 0.5
v 0.2 0.7 0.4
v 0.2 0.8 0.5
v 0.2 0.8 0.4
v 0.3 0.1 0.5
v 0.3 0.1 0.4
v 0.3 0.2 0.5
v 0.3 0.2 0.4
v 0.3 0.6 0.5
v 0.3 0.6 0.4
v 0.3 0.7 0.5
v 0.3 0.7 0.4
v 0.4 0.2 0.5
v 0.4 0.2 0.4
v 0.4 0.6 0.5
v 0.4 0.6 0.4
v -0.4 0.2 0.5
v -0.4 0.6 0.5
v -0.3 0.1 0.5
v -0.3 0.2 0.5
v -0.3 0.6 0.5
v -0.3 0.7 0.5
v -0.2 0 0.5
v -0.2 0.1 0.5
v -0.2 0.2 0.5
v -0.2 0.3 0.5
v -0.2 0.5 0.5
v -0.2 0.6 0.5
v -0.2 0.7 0.5
v -0.2 0.8 0.5
v -0.1 0.2 0.5
v -0.1 0.3 0.5
v -0.1 0.5 0.5
v -0.1 0.6 0.5
v 0.1 0.2 0.5
v 0.1 0.3 0.5
v 0.1 0.5 0.5
v 0.1 0.6 0.5
v 0.2 0 0.5
v 0.2 0.1 0.5
v 0.2 0.2 0.5
v 0.2 0.3 0.5
v 0.2 0.5 0.5
v 0.2 0.6 0.5
v 0.2 0.7 0.5
v 0.2 0.8 0.5
v 0.3 0.1 0.5
v 0.3 0.2 0.5
v 0.3 0.6 0.5
v 0.3 0.7 0.5
v 0.4 0.2 0.5
v 0.4 0.6 0.5
v -0.4 0.2 0.4
v -0.4 0.6 0.4
v -0.3 0.1 0.4
v -0.3 0.2 0.4
v -0.3 0.6 0.4
v -0.3 0.7 0.4
v -0.2 0 0.4
v -0.2 0.1 0.4
v -0.2 0.2 0.4
v -0.2 0.3 0.4
v -0.2 0.5 0.4
v -0.2 0.6 0.4
v -0.2 0.7 0.4
v -0.2 0.8 0.4
v -0.1 0.2 0.4
v -0.1 0.3 0.4
v -0.1 0.5 0.4
v -0.1 0.6 0.4
v 0.1 0.2 0.4
v 0.1 0.3 0.4
v 0.1 0.5 0.4
v 0.1 0.6 0.4
v 0.2 0 0.4
v 0.2 0.1 0.4
v 0.2 0.2 0.4
v 0.2 0.3 0.4
v 0.2 0.5 0.4
v 0.2 0.6 0.4
v 0.2 0.7 0.4
v 0.2 0.8 0.4
v 0.3 0.1 0.4
v 0.3 0.2 0.4
v 0.3 0.6 0.4
v 0.3 0.7 0.4
v 0.4 0.2 0.4
v 0.4 0.6 0.4
v -0.2 0 0.5
v 0.2 0 0.5
v -0.2 0 0.4
v 0.2 0 0.4
v -0.3 0.1 0.5
v -0.2 0.1 0.5
v 0.2 0.1 0.5
v 0.3 0.1 0.5
v -0.3 0.1 0.4
v -0.2 0.1 0.4
v 0.2 0.1 0.4
v 0.3 0.1 0.4
v -0.4 0.2 0.5
v -0.3 0.2 0.5
v 0.3 0.2 0.5
v 0.4 0.2 0.5
v -0.4 0.2 0.4
v -0.3 0.2 0.4
v 0.3 0.2 0.4
v 0.4 0.2 0.4
v -0.4 0.6 0.5
v -0.3 0.6 0.5
v 0.3 0.6 0.5
v 0.4 0.6 0.5
v -0.4 0.6 0.4
v -0.3 0.6 0.4
v 0.3 0.6 0.4
v 0.4 0.6 0.4
v -0.3 0.7 0.5
v -0.2 0.7 0.5
v 0.2 0.7 0.5
v 0.3 0.7 0.5
v -0.3 0.7 0.4
v -0.2 0.7 0.4
v 0.2 0.7 0.4
v 0.3 0.7 0.4
v -0.2 0.8 0.5
v 0.2 0.8 0.5
v -0.2 0.8 0.4
v 0.2 0.8 0.4

# faces
f 3/3/1 2/3/1 1/3/1
f 4/3/1 2/3/1 3/3/1
f 7/3/1 6/3/1 5/3/1
f 8/3/1 6/3/1 7/3/1
f 11/3/1 10/3/1 9/3/1
f 12/3/1 10/3/1 11/3/1
f 15/3/1 14/3/1 13/3/1
f 16/3/1 14/3/1 15/3/1
f 19/3/1 18/3/1 17/3/1
f 20/3/1 18/3/1 19/3/1
f 21/3/2 22/3/2 23/3/2
f 23/3/2 22/3/2 24/3/2
f 25/3/2 26/3/2 27/3/2
f 27/3/2 26/3/2 28/3/2
f 29/3/2 30/3/2 31/3/2
f 31/3/2 30/3/2 32/3/2
f 33/3/2 34/3/2 35/3/2
f 35/3/2 34/3/2 36/3/2
f 37/3/2 38/3/2 39/3/2
f 39/3/2 38/3/2 40/3/2
f 44/3/3 42/3/3 41/3/3
f 45/3/3 42/3/3 44/3/3
f 48/3/3 44/3/3 43/3/3
f 49/1/3 45/1/3 44/1/3
f 49/3/3 44/3/3 48/3/3
f 50/1/3 45/1/3 49/1/3
f 51/1/3 45/1/3 50/1/3
f 52/3/3 46/3/3 45/3/3
f 52/1/3 45/1/3 51/1/3
f 53/3/3 46/3/3 52/3/3
f 55/1/3 49/1/3 48/1/3
f 55/1/3 50/1/3 49/1/3
f 56/2/3 51/2/3 50/2/3
f 56/1/3 50/1/3 55/1/3
f 57/1/3 53/1/3 52/1/3
f 57/2/3 51/2/3 56/2/3
f 57/1/3 52/1/3 51/1/3
f 58/1/3 53/1/3 57/1/3
f 59/1/3 55/1/3 48/1/3
f 59/2/3 56/2/3 55/2/3
f 60/4/3 57/4/3 56/4/3
f 60/2/3 56/2/3 59/2/3
f 61/2/3 58/2/3 57/2/3
f 61/4/3 57/4/3 60/4/3
f 62/1/3 53/1/3 58/1/3
f 62/2/3 58/2/3 61/2/3
f 63/3/3 48/3/3 47/3/3
f 64/1/3 60/1/3 59/1/3
f 64/3/3 48/3/3 63/3/3
f 64/1/3 59/1/3 48/1/3
f 65/1/3 60/1/3 64/1/3
f 66/2/3 61/2/3 60/2/3
f 66/1/3 60/1/3 65/1/3
f 67/1/3 62/1/3 61/1/3
f 67/2/3 61/2/3 66/2/3
f 68/1/3 53/1/3 62/1/3
f 68/1/3 62/1/3 67/1/3
f 69/3/3 54/3/3 53/3/3
f 69/1/3 53/1/3 68/1/3
f 70/3/3 54/3/3 69/3/3
f 71/3/3 65/3/3 64/3/3
f 72/1/3 67/1/3 66/1/3
f 72/3/3 65/3/3 71/3/3
f 72/1/3 68/1/3 67/1/3
f 72/1/3 66/1/3 65/1/3
f 73/3/3 69/3/3 68/3/3
f 73/1/3 68/1/3 72/1/3
f 74/3/3 69/3/3 73/3/3
f 75/3/3 73/3/3 72/3/3
f 76/3/3 73/3/3 75/3/3
f 77/3/4 78/3/4 80/3/4
f 80/3/4 78/3/4 81/3/4
f 79/3/4 80/3/4 84/3/4
f 80/1/4 81/1/4 85/1/4
f 84/3/4 80/3/4 85/3/4
f 85/1/4 81/1/4 86/1/4
f 86/1/4 81/1/4 87/1/4
f 81/3/4 82/3/4 88/3/4
f 87/1/4 81/1/4 88/1/4
f 88/3/4 82/3/4 89/3/4
f 84/1/4 85/1/4 91/1/4
f 85/1/4 86/1/4 91/1/4
f 86/2/4 87/2/4 92/2/4
f 91/1/4 86/1/4 92/1/4
f 88/1/4 89/1/4 93/1/4
f 92/2/4 87/2/4 93/2/4
f 87/1/4 88/1/4 93/1/4
f 93/1/4 89/1/4 94/1/4
f 84/1/4 91/1/4 95/1/4
f 91/2/4 92/2/4 95/2/4
f 92/4/4 93/4/4 96/4/4
f 95/2/4 92/2/4 96/2/4
f 93/2/4 94/2/4 97/2/4
f 96/4/4 93/4/4 97/4/4
f 94/1/4 89/1/4 98/1/4
f 97/2/4 94/2/4 98/2/4
f 83/3/4 84/3/4 99/3/4
f 95/1/4 96/1/4 100/1/4
f 99/3/4 84/3/4 100/3/4
f 84/1/4 95/1/4 100/1/4
f 100/1/4 96/1/4 101/1/4
f 96/2/4 97/2/4 102/2/4
f 101/1/4 96/1/4 102/1/4
f 97/1/4 98/1/4 103/1/4
f 102/2/4 97/2/4 103/2/4
f 98/1/4 89/1/4 104/1/4
f 103/1/4 98/1/4 104/1/4
f 89/3/4 90/3/4 105/3/4
f 104/1/4 89/1/4 105/1/4
f 105/3/4 90/3/4 106/3/4
f 100/3/4 101/3/4 107/3/4
f 102/1/4 103/1/4 108/1/4
f 107/3/4 101/3/4 108/3/4
f 103/1/4 104/1/4 108/1/4
f 101/1/4 102/1/4 108/1/4
f 104/3/4 105/3/4 109/3/4
f 108/1/4 104/1/4 109/1/4
f 109/3/4 105/3/4 110/3/4
f 108/3/4 109/3/4 111/3/4
f 111/3/4 109/3/4 112/3/4
f 115/3/5 114/3/5 113/3/5
f 116/3/5 114/3/5 115/3/5
f 121/3/5 118/3/5 117/3/5
f 122/3/5 118/3/5 121/3/5
f 123/3/5 120/3/5 119/3/5
f 124/3/5 120/3/5 123/3/5
f 129/3/5 126/3/5 125/3/5
f 130/3/5 126/3/5 129/3/5
f 131/3/5 128/3/5 127/3/5
f 132/3/5 128/3/5 131/3/5
f 133/3/6 134/3/6 137/3/6
f 137/3/6 134/3/6 138/3/6
f 135/3/6 136/3/6 139/3/6
f 139/3/6 136/3/6 140/3/6
f 141/3/6 142/3/6 145/3/6
f 145/3/6 142/3/6 146/3/6
f 143/3/6 144/3/6 147/3/6
f 147/3/6 144/3/6 148/3/6
f 149/3/6 150/3/6 151/3/6
f 151/3/6 150/3/6 152/3/6
